<svg version="1.1" id="Layer_1" xmlns="http://www.w3.org/2000/svg" xmlns:xlink="http://www.w3.org/1999/xlink" x="0px" y="0px"
	 width="100%" viewBox="0 0 577 433" enable-background="new 0 0 577 433" xml:space="preserve">
<path fill="#000000" opacity="1.000000" stroke="none" 
	d="
M359.000000,434.000000 
	C239.333359,434.000000 120.166725,434.000000 1.000064,434.000000 
	C1.000043,289.666718 1.000043,145.333466 1.000021,1.000141 
	C193.333237,1.000094 385.666473,1.000094 577.999756,1.000047 
	C577.999878,145.333191 577.999878,289.666382 577.999939,433.999786 
	C505.166656,434.000000 432.333344,434.000000 359.000000,434.000000 
M213.276382,401.060089 
	C234.208786,410.635681 256.313171,415.038666 279.198456,415.981689 
	C297.568665,416.738708 315.899261,415.959412 333.808838,411.783691 
	C348.651154,408.323120 362.897888,403.006287 376.734711,396.295441 
	C394.180084,387.834442 409.938599,377.131805 424.201477,364.204529 
	C436.104340,353.416260 446.389648,341.148865 455.135529,327.620361 
	C464.350983,313.365479 472.730408,298.666321 477.268982,282.197601 
	C480.847839,269.211273 484.683105,256.178192 486.669800,242.906189 
	C488.379181,231.486435 488.623383,219.622971 487.726715,208.094833 
	C486.630310,193.999115 484.375366,179.892853 481.333710,166.074585 
	C477.551605,148.892303 469.763367,133.194275 461.063782,117.898842 
	C449.144104,96.941864 433.597473,79.085518 415.161163,63.861485 
	C400.884949,52.072731 384.890045,42.862457 367.876709,35.286274 
	C344.849670,25.032139 320.593201,20.847137 295.759216,19.049299 
	C278.987518,17.835121 262.295776,19.612833 246.035233,23.269339 
	C217.415833,29.704977 191.230865,42.179020 167.944138,59.926609 
	C157.676437,67.751976 148.719849,77.430130 139.809769,86.872681 
	C127.122139,100.318504 117.779198,116.042610 109.602295,132.633316 
	C98.681923,154.790405 92.906181,178.271927 91.253662,202.610199 
	C89.869286,222.999390 91.089134,243.402390 95.926208,263.519592 
	C101.191254,285.416656 109.757782,305.787445 121.988724,324.616180 
	C132.285110,340.466736 144.231903,354.836945 158.588211,367.365448 
	C174.820099,381.530731 192.723679,392.654999 213.276382,401.060089 
z"/>
<path fill="#FD5B61" opacity="1.000000" stroke="none" 
	d="
M212.887451,401.007721 
	C192.723679,392.654999 174.820099,381.530731 158.588211,367.365448 
	C144.231903,354.836945 132.285110,340.466736 121.988724,324.616180 
	C109.757782,305.787445 101.191254,285.416656 95.926208,263.519592 
	C91.089134,243.402390 89.869286,222.999390 91.253662,202.610199 
	C92.906181,178.271927 98.681923,154.790405 109.602295,132.633316 
	C117.779198,116.042610 127.122139,100.318504 139.809769,86.872681 
	C148.719849,77.430130 157.676437,67.751976 167.944138,59.926609 
	C191.230865,42.179020 217.415833,29.704977 246.035233,23.269339 
	C262.295776,19.612833 278.987518,17.835121 295.759216,19.049299 
	C320.593201,20.847137 344.849670,25.032139 367.876709,35.286274 
	C384.890045,42.862457 400.884949,52.072731 415.161163,63.861485 
	C433.597473,79.085518 449.144104,96.941864 461.063782,117.898842 
	C469.763367,133.194275 477.551605,148.892303 481.333710,166.074585 
	C484.375366,179.892853 486.630310,193.999115 487.726715,208.094833 
	C488.623383,219.622971 488.379181,231.486435 486.669800,242.906189 
	C484.683105,256.178192 480.847839,269.211273 477.268982,282.197601 
	C472.730408,298.666321 464.350983,313.365479 455.135529,327.620361 
	C446.389648,341.148865 436.104340,353.416260 424.201477,364.204529 
	C409.938599,377.131805 394.180084,387.834442 376.734711,396.295441 
	C362.897888,403.006287 348.651154,408.323120 333.808838,411.783691 
	C315.899261,415.959412 297.568665,416.738708 279.198456,415.981689 
	C256.313171,415.038666 234.208786,410.635681 212.887451,401.007721 
M226.340881,301.518524 
	C226.233551,313.813751 226.113586,326.108887 226.062225,338.404358 
	C226.060028,338.930328 226.692230,339.458923 227.444107,340.698608 
	C230.582352,340.448883 233.720581,340.199158 236.991272,339.026886 
	C236.923447,326.378235 236.855637,313.729553 236.342773,300.435089 
	C233.232010,300.622345 230.121231,300.809631 226.340881,301.518524 
M358.343384,281.726410 
	C358.219452,300.762512 358.083801,319.798615 358.017456,338.834900 
	C358.014984,339.542969 358.687592,340.253387 359.896240,341.018555 
	C365.526733,341.315094 371.344757,337.157501 376.884979,341.882263 
	C377.541748,342.442322 379.607941,341.066315 381.020172,341.068146 
	C393.838318,341.084869 402.077576,325.917938 398.181549,314.309692 
	C394.678162,303.871399 388.290741,299.739502 374.573303,299.560486 
	C373.188202,299.560486 371.803131,299.560486 369.983429,299.560486 
	C369.983429,294.267639 370.167389,289.307648 369.869629,284.376709 
	C369.782074,282.926514 368.426331,280.444122 367.484863,280.362549 
	C364.680054,280.119690 361.792297,280.834412 358.343384,281.726410 
M243.279541,301.465302 
	C243.279541,314.461273 243.279541,327.457214 243.279541,341.391724 
	C246.792953,340.860168 249.882538,340.392731 253.005417,339.501129 
	C253.005417,339.501129 253.154282,339.102539 253.658264,338.419281 
	C253.783295,329.573364 253.908340,320.727478 254.357376,311.213409 
	C257.123596,310.478607 259.851990,309.438477 262.666046,309.089722 
	C265.869659,308.692688 267.188873,307.502594 267.122284,304.090485 
	C267.055359,300.661102 265.548309,299.453064 262.541992,300.038910 
	C260.382690,300.459656 258.335632,301.468994 256.248810,302.243561 
	C255.244461,302.616302 253.429977,303.475830 253.391769,303.400482 
	C251.142929,298.963928 247.150986,301.700684 243.279541,301.465302 
M326.714905,339.561188 
	C326.832977,330.337524 326.951019,321.113831 327.386627,311.231537 
	C335.956696,307.262299 339.510437,307.837891 342.857605,314.722260 
	C342.895020,321.306885 342.949707,327.891510 342.965179,334.476166 
	C342.981781,341.546051 346.301666,343.294708 352.980164,339.456696 
	C352.980164,339.456696 353.118652,339.183868 353.652435,338.499817 
	C353.776520,332.707581 354.041809,326.913513 353.967163,321.123840 
	C353.927856,318.073761 353.294952,315.031311 352.268585,311.663666 
	C351.019073,301.869171 337.856598,297.057251 330.913605,301.456207 
	C329.653259,302.254730 327.911682,302.817078 326.463593,302.688049 
	C323.341583,302.409943 320.265900,301.611664 316.504303,301.545074 
	C316.362915,314.137604 316.208649,326.730072 316.123688,339.322998 
	C316.119995,339.869049 316.753326,340.419464 317.926453,341.015594 
	C320.602905,340.667206 323.279327,340.318817 326.714905,339.561188 
M218.970032,300.996155 
	C213.301178,300.396088 207.570786,303.718689 201.805756,300.179535 
	C200.030106,299.089447 196.701630,299.503082 194.493210,300.325928 
	C186.127747,303.442993 180.382217,309.353516 179.118668,318.373291 
	C177.947037,326.736877 181.930191,333.487640 188.207870,338.551697 
	C195.156265,344.156738 202.502701,342.792572 208.530945,338.855072 
	C210.721146,339.784515 212.182220,340.872284 213.681030,340.927032 
	C215.742874,341.002411 217.833282,340.296387 220.488846,340.122711 
	C220.635162,327.612335 220.794739,315.102081 220.881073,302.591278 
	C220.884659,302.072449 220.202972,301.548859 218.970032,300.996155 
M280.565125,281.307220 
	C277.514160,281.307220 274.463196,281.307220 270.988495,281.307220 
	C270.988495,300.653290 270.964661,319.550812 271.067719,338.447662 
	C271.072266,339.281982 272.244843,340.825653 272.856995,340.817474 
	C275.552551,340.781433 278.242126,340.296814 281.005707,339.191956 
	C281.894348,338.857605 283.478302,338.097992 283.571442,338.250244 
	C287.373749,344.466736 293.417450,341.346924 297.653015,340.446381 
	C307.214661,338.413422 314.580658,325.223083 311.848999,316.035156 
	C308.629333,305.205780 300.707001,299.080322 289.177277,300.097137 
	C286.844299,300.302856 284.640137,301.969330 280.971069,303.579010 
	C280.971069,295.770416 280.971069,288.912201 280.565125,281.307220 
M330.946136,125.608566 
	C326.294250,116.687531 321.984039,107.563583 316.854187,98.926414 
	C314.061615,94.224518 310.609375,89.259666 306.192413,86.292412 
	C288.568634,74.453117 269.994537,82.999069 261.419800,99.152237 
	C257.711578,106.137833 254.463409,113.366020 250.871460,120.415321 
	C244.155319,133.595993 237.115982,146.616852 230.628860,159.908096 
	C223.813232,173.872391 217.416306,188.043335 210.970169,202.184952 
	C206.017395,213.050354 203.075974,223.939865 206.826889,236.209610 
	C210.728333,248.971649 227.122375,263.418335 240.331802,262.841583 
	C250.038605,262.417725 259.862701,260.785583 267.959534,254.535828 
	C275.201813,248.945694 282.220398,243.065796 289.294678,237.348480 
	C293.076599,240.953705 297.041443,244.866058 301.149384,248.621979 
	C310.014618,256.727600 320.527496,262.261810 332.381531,262.769409 
	C348.541931,263.461395 362.208710,254.678802 369.299500,239.889771 
	C371.907532,234.450287 373.962219,227.939072 373.588226,222.088089 
	C373.157410,215.348099 370.328003,208.547028 367.533783,202.216782 
	C361.577454,188.722946 355.021576,175.491714 348.615906,162.198883 
	C342.842865,150.218826 336.942596,138.300110 330.946136,125.608566 
M233.962143,282.038452 
	C232.464111,282.028656 230.930740,281.808289 229.475403,282.052673 
	C226.406128,282.568085 224.203247,286.945618 225.136108,290.357483 
	C226.070541,293.775085 229.649246,295.806274 232.779922,294.695923 
	C238.365005,292.715057 239.225876,287.288818 233.962143,282.038452 
z"/>
<path fill="#000000" opacity="1.000000" stroke="none" 
	d="
M331.022278,125.981453 
	C336.942596,138.300110 342.842865,150.218826 348.615906,162.198883 
	C355.021576,175.491714 361.577454,188.722946 367.533783,202.216782 
	C370.328003,208.547028 373.157410,215.348099 373.588226,222.088089 
	C373.962219,227.939072 371.907532,234.450287 369.299500,239.889771 
	C362.208710,254.678802 348.541931,263.461395 332.381531,262.769409 
	C320.527496,262.261810 310.014618,256.727600 301.149384,248.621979 
	C297.041443,244.866058 293.076599,240.953705 289.294678,237.348480 
	C282.220398,243.065796 275.201813,248.945694 267.959534,254.535828 
	C259.862701,260.785583 250.038605,262.417725 240.331802,262.841583 
	C227.122375,263.418335 210.728333,248.971649 206.826889,236.209610 
	C203.075974,223.939865 206.017395,213.050354 210.970169,202.184952 
	C217.416306,188.043335 223.813232,173.872391 230.628860,159.908096 
	C237.115982,146.616852 244.155319,133.595993 250.871460,120.415321 
	C254.463409,113.366020 257.711578,106.137833 261.419800,99.152237 
	C269.994537,82.999069 288.568634,74.453117 306.192413,86.292412 
	C310.609375,89.259666 314.061615,94.224518 316.854187,98.926414 
	C321.984039,107.563583 326.294250,116.687531 331.022278,125.981453 
M224.537018,197.987274 
	C222.483749,202.412674 220.057480,206.706955 218.447113,211.288040 
	C213.614822,225.034775 214.725479,235.650284 224.989304,245.134720 
	C232.851715,252.400070 242.886597,253.665970 253.411194,250.241364 
	C265.302338,246.372131 273.541534,237.787567 282.007812,229.504730 
	C272.251953,216.073471 262.535492,203.012573 259.582642,186.285202 
	C256.710083,170.012833 262.911530,154.576706 280.233398,149.307739 
	C296.300262,144.420502 314.350739,153.272141 318.497101,169.091064 
	C321.656342,181.143997 318.547607,192.701431 312.943878,203.299713 
	C308.223633,212.227066 302.198029,220.464249 296.701569,229.083282 
	C303.906830,236.460632 311.004669,244.502899 321.277405,248.714874 
	C328.769165,251.786621 336.304321,253.307816 344.106354,250.356308 
	C361.434601,243.801010 367.090363,226.320129 359.629028,210.181610 
	C356.663879,203.768051 353.972534,197.227310 350.976471,190.828796 
	C345.488556,179.108582 339.999573,167.385376 334.262665,155.786270 
	C328.803558,144.748856 323.074005,133.843933 317.373993,122.927437 
	C313.571655,115.645309 310.050720,108.163956 305.627655,101.269730 
	C297.747314,88.986633 279.029602,89.118698 271.775635,102.693031 
	C264.444183,116.412384 257.267456,130.223053 250.396118,144.177475 
	C241.718719,161.799622 233.418961,179.607727 224.537018,197.987274 
M306.982208,189.426010 
	C309.182587,183.953247 310.221832,178.276672 308.085510,172.653595 
	C303.801941,161.378601 299.703857,158.958206 286.334869,159.017776 
	C277.500549,159.057144 270.526611,166.415970 269.925171,175.188766 
	C269.081116,187.500153 273.935028,197.795654 280.222229,207.687698 
	C282.942047,211.966980 286.100433,215.967453 289.059631,220.094574 
	C289.690155,220.124588 290.320679,220.154587 290.951202,220.184601 
	C296.266510,210.203323 301.581848,200.222031 306.982208,189.426010 
z"/>
<path fill="#000000" opacity="1.000000" stroke="none" 
	d="
M375.038849,300.060638 
	C388.290741,299.739502 394.678162,303.871399 398.181549,314.309692 
	C402.077576,325.917938 393.838318,341.084869 381.020172,341.068146 
	C379.607941,341.066315 377.541748,342.442322 376.884979,341.882263 
	C371.344757,337.157501 365.526733,341.315094 359.447205,340.526215 
	C359.013611,320.727814 359.029053,301.421753 359.497803,282.052795 
	C362.866058,281.989929 365.780975,281.989929 368.763062,281.989929 
	C368.763062,289.584900 368.763062,296.616516 368.763062,304.157715 
	C371.310974,302.494354 373.174927,301.277496 375.038849,300.060638 
M368.997375,316.777100 
	C368.996490,319.436554 369.249176,322.126373 368.934875,324.748260 
	C368.473389,328.598145 370.408722,330.588684 373.621185,331.844574 
	C379.052643,333.967865 386.750366,331.269501 388.863403,326.190765 
	C391.689484,319.398346 390.009796,314.389618 383.633453,310.330292 
	C377.517426,306.436584 369.395752,309.777618 368.997375,316.777100 
z"/>
<path fill="#000000" opacity="1.000000" stroke="none" 
	d="
M280.971069,282.053955 
	C280.971069,288.912201 280.971069,295.770416 280.971069,303.579010 
	C284.640137,301.969330 286.844299,300.302856 289.177277,300.097137 
	C300.707001,299.080322 308.629333,305.205780 311.848999,316.035156 
	C314.580658,325.223083 307.214661,338.413422 297.653015,340.446381 
	C293.417450,341.346924 287.373749,344.466736 283.571442,338.250244 
	C283.478302,338.097992 281.894348,338.857605 280.517578,339.604431 
	C277.428009,340.016937 274.826630,340.016937 272.268036,340.016937 
	C272.268036,320.378815 272.268036,301.307312 272.268036,282.053955 
	C275.351959,282.053955 278.161499,282.053955 280.971069,282.053955 
M281.054138,314.246399 
	C281.042480,318.076752 280.988770,321.907715 281.045471,325.737061 
	C281.061920,326.845642 281.077789,328.694550 281.635651,328.932190 
	C284.763184,330.264191 288.052948,332.065277 291.293976,332.078613 
	C295.982758,332.097839 300.312744,330.084625 301.900726,324.945770 
	C303.629517,319.351410 301.533813,313.635254 297.002014,310.979736 
	C290.920135,307.415985 286.315979,308.123566 281.054138,314.246399 
z"/>
<path fill="#000000" opacity="1.000000" stroke="none" 
	d="
M219.911438,339.925110 
	C217.833282,340.296387 215.742874,341.002411 213.681030,340.927032 
	C212.182220,340.872284 210.721146,339.784515 208.530945,338.855072 
	C202.502701,342.792572 195.156265,344.156738 188.207870,338.551697 
	C181.930191,333.487640 177.947037,326.736877 179.118668,318.373291 
	C180.382217,309.353516 186.127747,303.442993 194.493210,300.325928 
	C196.701630,299.503082 200.030106,299.089447 201.805756,300.179535 
	C207.570786,303.718689 213.301178,300.396088 219.470184,301.475403 
	C219.950699,314.611450 219.931061,327.268250 219.911438,339.925110 
M205.902908,310.459869 
	C200.711136,307.068146 195.358841,309.056244 191.930313,312.352966 
	C189.540588,314.650818 189.161362,319.830322 189.234711,323.696960 
	C189.324463,328.429016 196.298584,333.233337 201.289551,332.967377 
	C207.480438,332.637451 209.990540,329.656464 209.991302,322.629944 
	C209.991531,320.471588 210.430664,318.185547 209.856979,316.191559 
	C209.308212,314.284241 207.704117,312.680511 205.902908,310.459869 
z"/>
<path fill="#000000" opacity="1.000000" stroke="none" 
	d="
M342.946411,313.751678 
	C339.510437,307.837891 335.956696,307.262299 326.809143,311.734283 
	C326.139740,321.481506 326.047760,330.725952 325.955780,339.970398 
	C323.279327,340.318817 320.602905,340.667206 317.463562,340.527527 
	C317.057526,327.035065 317.114380,314.030609 317.171265,301.026184 
	C320.265900,301.611664 323.341583,302.409943 326.463593,302.688049 
	C327.911682,302.817078 329.653259,302.254730 330.913605,301.456207 
	C337.856598,297.057251 351.019073,301.869171 352.646912,312.293152 
	C353.056366,321.676392 353.087494,330.430115 353.118652,339.183868 
	C353.118652,339.183868 352.980164,339.456696 352.558167,339.717438 
	C349.529816,339.978180 346.923462,339.978180 343.997467,339.978180 
	C343.997467,332.437622 344.056366,325.327362 343.949768,318.219574 
	C343.927368,316.725586 343.296753,315.240753 342.946411,313.751678 
z"/>
<path fill="#000000" opacity="1.000000" stroke="none" 
	d="
M253.154282,339.102539 
	C253.154282,339.102539 253.005417,339.501129 252.534103,339.759338 
	C249.478714,340.017548 246.894638,340.017548 244.030334,340.017548 
	C244.030334,326.716400 244.030334,313.883240 244.030334,301.050079 
	C247.150986,301.700684 251.142929,298.963928 253.391769,303.400482 
	C253.429977,303.475830 255.244461,302.616302 256.248810,302.243561 
	C258.335632,301.468994 260.382690,300.459656 262.541992,300.038910 
	C265.548309,299.453064 267.055359,300.661102 267.122284,304.090485 
	C267.188873,307.502594 265.869659,308.692688 262.666046,309.089722 
	C259.851990,309.438477 257.123596,310.478607 253.796478,311.753052 
	C253.208496,321.229309 253.181381,330.165924 253.154282,339.102539 
z"/>
<path fill="#000000" opacity="1.000000" stroke="none" 
	d="
M234.357132,282.151611 
	C239.225876,287.288818 238.365005,292.715057 232.779922,294.695923 
	C229.649246,295.806274 226.070541,293.775085 225.136108,290.357483 
	C224.203247,286.945618 226.406128,282.568085 229.475403,282.052673 
	C230.930740,281.808289 232.464111,282.028656 234.357132,282.151611 
z"/>
<path fill="#FFCDCF" opacity="1.000000" stroke="none" 
	d="
M280.768097,281.680603 
	C278.161499,282.053955 275.351959,282.053955 272.268036,282.053955 
	C272.268036,301.307312 272.268036,320.378815 272.268036,340.016937 
	C274.826630,340.016937 277.428009,340.016937 280.481628,339.995850 
	C278.242126,340.296814 275.552551,340.781433 272.856995,340.817474 
	C272.244843,340.825653 271.072266,339.281982 271.067719,338.447662 
	C270.964661,319.550812 270.988495,300.653290 270.988495,281.307220 
	C274.463196,281.307220 277.514160,281.307220 280.768097,281.680603 
z"/>
<path fill="#FC989B" opacity="1.000000" stroke="none" 
	d="
M359.044495,282.115692 
	C359.029053,301.421753 359.013611,320.727814 359.021851,340.498291 
	C358.687592,340.253387 358.014984,339.542969 358.017456,338.834900 
	C358.083801,319.798615 358.219452,300.762512 358.655182,281.686523 
	C358.966980,281.646667 359.044495,282.115692 359.044495,282.115692 
z"/>
<path fill="#E7787D" opacity="1.000000" stroke="none" 
	d="
M359.497803,282.052795 
	C359.044495,282.115692 358.966980,281.646667 358.951965,281.410828 
	C361.792297,280.834412 364.680054,280.119690 367.484863,280.362549 
	C368.426331,280.444122 369.782074,282.926514 369.869629,284.376709 
	C370.167389,289.307648 369.983429,294.267639 369.983429,299.560486 
	C371.803131,299.560486 373.188202,299.560486 374.806091,299.810547 
	C373.174927,301.277496 371.310974,302.494354 368.763062,304.157715 
	C368.763062,296.616516 368.763062,289.584900 368.763062,281.989929 
	C365.780975,281.989929 362.866058,281.989929 359.497803,282.052795 
z"/>
<path fill="#FFE3E1" opacity="1.000000" stroke="none" 
	d="
M243.654938,301.257690 
	C244.030334,313.883240 244.030334,326.716400 244.030334,340.017548 
	C246.894638,340.017548 249.478714,340.017548 252.517456,339.971436 
	C249.882538,340.392731 246.792953,340.860168 243.279541,341.391724 
	C243.279541,327.457214 243.279541,314.461273 243.654938,301.257690 
z"/>
<path fill="#E28184" opacity="1.000000" stroke="none" 
	d="
M220.200134,340.023895 
	C219.931061,327.268250 219.950699,314.611450 219.905426,301.491058 
	C220.202972,301.548859 220.884659,302.072449 220.881073,302.591278 
	C220.794739,315.102081 220.635162,327.612335 220.200134,340.023895 
z"/>
<path fill="#F37E82" opacity="1.000000" stroke="none" 
	d="
M316.837769,301.285645 
	C317.114380,314.030609 317.057526,327.035065 317.045288,340.503662 
	C316.753326,340.419464 316.119995,339.869049 316.123688,339.322998 
	C316.208649,326.730072 316.362915,314.137604 316.837769,301.285645 
z"/>
<path fill="#FFD5D9" opacity="1.000000" stroke="none" 
	d="
M236.787827,301.080902 
	C236.855637,313.729553 236.923447,326.378235 236.682724,339.484497 
	C236.374176,339.942078 235.888931,339.959259 235.940155,339.495850 
	C235.986984,326.377045 235.982620,313.721680 236.180435,301.081787 
	C236.382614,301.097260 236.787827,301.080902 236.787827,301.080902 
z"/>
<path fill="#FFB9BC" opacity="1.000000" stroke="none" 
	d="
M227.028900,339.986298 
	C226.692230,339.458923 226.060028,338.930328 226.062225,338.404358 
	C226.113586,326.108887 226.233551,313.813751 226.682526,301.270508 
	C227.024170,301.022461 227.044098,301.044006 227.022400,301.509338 
	C227.024170,314.625763 227.047653,327.276917 227.059204,339.941620 
	C227.047272,339.955200 227.028900,339.986298 227.028900,339.986298 
z"/>
<path fill="#FFD5D6" opacity="1.000000" stroke="none" 
	d="
M342.902008,314.236969 
	C343.296753,315.240753 343.927368,316.725586 343.949768,318.219574 
	C344.056366,325.327362 343.997467,332.437622 343.997467,339.978180 
	C346.923462,339.978180 349.529816,339.978180 352.589539,339.867157 
	C346.301666,343.294708 342.981781,341.546051 342.965179,334.476166 
	C342.949707,327.891510 342.895020,321.306885 342.902008,314.236969 
z"/>
<path fill="#FFE5E5" opacity="1.000000" stroke="none" 
	d="
M326.335327,339.765808 
	C326.047760,330.725952 326.139740,321.481506 326.650391,312.063599 
	C326.951019,321.113831 326.832977,330.337524 326.335327,339.765808 
z"/>
<path fill="#F3858A" opacity="1.000000" stroke="none" 
	d="
M253.406281,338.760925 
	C253.181381,330.165924 253.208496,321.229309 253.634491,312.087128 
	C253.908340,320.727478 253.783295,329.573364 253.406281,338.760925 
z"/>
<path fill="#FB9697" opacity="1.000000" stroke="none" 
	d="
M353.385559,338.841858 
	C353.087494,330.430115 353.056366,321.676392 352.977661,312.454041 
	C353.294952,315.031311 353.927856,318.073761 353.967163,321.123840 
	C354.041809,326.913513 353.776520,332.707581 353.385559,338.841858 
z"/>
<path fill="#FFB9BC" opacity="1.000000" stroke="none" 
	d="
M236.565308,300.757996 
	C236.787827,301.080902 236.382614,301.097260 235.732803,301.043640 
	C232.403366,301.007996 229.723724,301.026001 227.044098,301.044006 
	C227.044098,301.044006 227.024170,301.022461 227.017319,301.009674 
	C230.121231,300.809631 233.232010,300.622345 236.565308,300.757996 
z"/>
<path fill="#FFB9BC" opacity="1.000000" stroke="none" 
	d="
M235.888931,339.959259 
	C235.888931,339.959259 236.374176,339.942078 236.616501,339.945770 
	C233.720581,340.199158 230.582352,340.448883 227.236511,340.342468 
	C227.028900,339.986298 227.047272,339.955200 227.499878,339.966187 
	C230.597961,339.971161 233.243454,339.965210 235.888931,339.959259 
z"/>
<path fill="#FB5C62" opacity="1.000000" stroke="none" 
	d="
M224.746643,197.661453 
	C233.418961,179.607727 241.718719,161.799622 250.396118,144.177475 
	C257.267456,130.223053 264.444183,116.412384 271.775635,102.693031 
	C279.029602,89.118698 297.747314,88.986633 305.627655,101.269730 
	C310.050720,108.163956 313.571655,115.645309 317.373993,122.927437 
	C323.074005,133.843933 328.803558,144.748856 334.262665,155.786270 
	C339.999573,167.385376 345.488556,179.108582 350.976471,190.828796 
	C353.972534,197.227310 356.663879,203.768051 359.629028,210.181610 
	C367.090363,226.320129 361.434601,243.801010 344.106354,250.356308 
	C336.304321,253.307816 328.769165,251.786621 321.277405,248.714874 
	C311.004669,244.502899 303.906830,236.460632 296.701569,229.083282 
	C302.198029,220.464249 308.223633,212.227066 312.943878,203.299713 
	C318.547607,192.701431 321.656342,181.143997 318.497101,169.091064 
	C314.350739,153.272141 296.300262,144.420502 280.233398,149.307739 
	C262.911530,154.576706 256.710083,170.012833 259.582642,186.285202 
	C262.535492,203.012573 272.251953,216.073471 282.007812,229.504730 
	C273.541534,237.787567 265.302338,246.372131 253.411194,250.241364 
	C242.886597,253.665970 232.851715,252.400070 224.989304,245.134720 
	C214.725479,235.650284 213.614822,225.034775 218.447113,211.288040 
	C220.057480,206.706955 222.483749,202.412674 224.746643,197.661453 
z"/>
<path fill="#FA5D63" opacity="1.000000" stroke="none" 
	d="
M306.939697,189.833374 
	C301.581848,200.222031 296.266510,210.203323 290.951202,220.184601 
	C290.320679,220.154587 289.690155,220.124588 289.059631,220.094574 
	C286.100433,215.967453 282.942047,211.966980 280.222229,207.687698 
	C273.935028,197.795654 269.081116,187.500153 269.925171,175.188766 
	C270.526611,166.415970 277.500549,159.057144 286.334869,159.017776 
	C299.703857,158.958206 303.801941,161.378601 308.085510,172.653595 
	C310.221832,178.276672 309.182587,183.953247 306.939697,189.833374 
z"/>
<path fill="#F75F64" opacity="1.000000" stroke="none" 
	d="
M368.997375,316.320251 
	C369.395752,309.777618 377.517426,306.436584 383.633453,310.330292 
	C390.009796,314.389618 391.689484,319.398346 388.863403,326.190765 
	C386.750366,331.269501 379.052643,333.967865 373.621185,331.844574 
	C370.408722,330.588684 368.473389,328.598145 368.934875,324.748260 
	C369.249176,322.126373 368.996490,319.436554 368.997375,316.320251 
z"/>
<path fill="#F55F65" opacity="1.000000" stroke="none" 
	d="
M281.130829,313.826721 
	C286.315979,308.123566 290.920135,307.415985 297.002014,310.979736 
	C301.533813,313.635254 303.629517,319.351410 301.900726,324.945770 
	C300.312744,330.084625 295.982758,332.097839 291.293976,332.078613 
	C288.052948,332.065277 284.763184,330.264191 281.635651,328.932190 
	C281.077789,328.694550 281.061920,326.845642 281.045471,325.737061 
	C280.988770,321.907715 281.042480,318.076752 281.130829,313.826721 
z"/>
<path fill="#F75F64" opacity="1.000000" stroke="none" 
	d="
M206.233398,310.701599 
	C207.704117,312.680511 209.308212,314.284241 209.856979,316.191559 
	C210.430664,318.185547 209.991531,320.471588 209.991302,322.629944 
	C209.990540,329.656464 207.480438,332.637451 201.289551,332.967377 
	C196.298584,333.233337 189.324463,328.429016 189.234711,323.696960 
	C189.161362,319.830322 189.540588,314.650818 191.930313,312.352966 
	C195.358841,309.056244 200.711136,307.068146 206.233398,310.701599 
z"/>
<path fill="#000000" opacity="1.000000" stroke="none" 
	d="
M235.940155,339.495850 
	C233.243454,339.965210 230.597961,339.971161 227.511810,339.952576 
	C227.047653,327.276917 227.024170,314.625763 227.022400,301.509338 
	C229.723724,301.026001 232.403366,301.007996 235.530624,301.028137 
	C235.982620,313.721680 235.986984,326.377045 235.940155,339.495850 
z"/>
</svg>